<?xml version="1.0" encoding="UTF-8"?>
<svg width="76px" height="76px" viewBox="0 0 76 76" version="1.1" xmlns="http://www.w3.org/2000/svg" xmlns:xlink="http://www.w3.org/1999/xlink">
    <title>Pubilshing Services</title>
    <g id="03-Icons-/-Symbole" stroke="none" stroke-width="1" fill="none" fill-rule="evenodd">
        <g id="Icons" transform="translate(-542.000000, -483.000000)">
            <g id="B2B-Tools" transform="translate(115.000000, 471.000000)">
                <g id="Pubilshing-Services" transform="translate(427.000000, 12.000000)">
                    <path d="M76,0 L76,76 L0,76 L0,0 L76,0 Z" id="Path-Copy-3"></path>
                    <path d="M37.973,6 C23.069,6 11,18.096 11,33 C11,47.904 23.069,60 37.973,60 C52.904,60 65,47.904 65,33 C65,18.096 52.904,6 37.973,6 Z M56.684,22.2 L48.719,22.2 C47.855,18.825 46.613,15.585 44.993,12.588 C49.961,14.289 54.092,17.745 56.684,22.2 Z M38,11.508 C40.241,14.748 41.996,18.339 43.157,22.2 L32.843,22.2 C34.004,18.339 35.759,14.748 38,11.508 Z M17.102,38.4 C16.67,36.672 16.4,34.863 16.4,33 C16.4,31.137 16.67,29.328 17.102,27.6 L26.228,27.6 C26.012,29.382 25.85,31.164 25.85,33 C25.85,34.836 26.012,36.618 26.228,38.4 L17.102,38.4 Z M19.316,43.8 L27.281,43.8 C28.145,47.175 29.387,50.415 31.007,53.412 C26.039,51.711 21.908,48.282 19.316,43.8 L19.316,43.8 Z M27.281,22.2 L19.316,22.2 C21.908,17.718 26.039,14.289 31.007,12.588 C29.387,15.585 28.145,18.825 27.281,22.2 L27.281,22.2 Z M38,54.492 C35.759,51.252 34.004,47.661 32.843,43.8 L43.157,43.8 C41.996,47.661 40.241,51.252 38,54.492 Z M44.318,38.4 L31.682,38.4 C31.439,36.618 31.25,34.836 31.25,33 C31.25,31.164 31.439,29.355 31.682,27.6 L44.318,27.6 C44.561,29.355 44.75,31.164 44.75,33 C44.75,34.836 44.561,36.618 44.318,38.4 Z M44.993,53.412 C46.613,50.415 47.855,47.175 48.719,43.8 L56.684,43.8 C54.092,48.255 49.961,51.711 44.993,53.412 L44.993,53.412 Z M49.772,38.4 C49.988,36.618 50.15,34.836 50.15,33 C50.15,31.164 49.988,29.382 49.772,27.6 L58.898,27.6 C59.33,29.328 59.6,31.137 59.6,33 C59.6,34.863 59.33,36.672 58.898,38.4 L49.772,38.4 Z" id="Shape" fill="#1194DB" fill-rule="nonzero"></path>
                    <path d="M58,63 L38,63 L38,68 L58,68 L58,63 Z M76,52 L76,58 L38,58 L38,52 L76,52 Z M76,41 L76,47 L38,47 L38,41 L76,41 Z M38,30 L38,36 L76,36 L76,30 L38,30 Z" id="Shape" fill="#5FD5FF" fill-rule="nonzero"></path>
                </g>
            </g>
        </g>
    </g>
</svg>