<?xml version="1.0" encoding="UTF-8"?>
<svg width="76px" height="76px" viewBox="0 0 76 76" version="1.1" xmlns="http://www.w3.org/2000/svg" xmlns:xlink="http://www.w3.org/1999/xlink">
    <title>Presse-Services</title>
    <g id="03-Icons-/-Symbole" stroke="none" stroke-width="1" fill="none" fill-rule="evenodd">
        <g id="Icons" transform="translate(-822.000000, -483.000000)">
            <g id="B2B-Tools" transform="translate(115.000000, 471.000000)">
                <g id="Presse-Services" transform="translate(707.000000, 12.000000)">
                    <polygon id="Path-Copy-2" points="0 0 76 0 76 76 0 76"></polygon>
                    <path d="M45.8988701,8 L60.8988701,23 L60.8988701,53 C60.8988701,55.75 58.6488701,58 55.8988701,58 L55.8988701,58 L43.411,58 L43.4115273,53 L55.8988701,53 L55.8988701,25.5 L43.3988701,25.5 L43.3988701,12 L21,12.000086 C21.4665241,9.7249205 23.4910393,8 25.8988701,8 L25.8988701,8 L45.8988701,8 Z" id="Combined-Shape" fill="#1194DB" fill-rule="nonzero"></path>
                    <path d="M13.5,50 L33.5,50 L33.5,55 L13.5,55 L13.5,50 Z M13.5,40 L33.5,40 L33.5,45 L13.5,45 L13.5,40 Z M28.5,15 L8.5,15 C5.75,15 3.5,17.25 3.5,20 L3.5,60 C3.5,62.75 5.725,65 8.475,65 L38.5,65 C41.25,65 43.5,62.75 43.5,60 L43.5,30 L28.5,15 Z M38.5,60 L8.5,60 L8.5,20 L26,20 L26,32.5 L38.5,32.5 L38.5,60 Z" id="Shape-Copy" fill="#1194DB" fill-rule="nonzero"></path>
                    <path d="M46,40 L46,70 L36,70 L36,40 L46,40 Z M61,20 L61,70 L51,70 L51,20 L61,20 Z M76,32 L76,70 L66,70 L66,32 L76,32 Z" id="Combined-Shape" fill="#5FD5FF"></path>
                </g>
            </g>
        </g>
    </g>
</svg>